<svg width="361" height="203" viewBox="0 0 361 203" fill="none" xmlns="http://www.w3.org/2000/svg">
<g filter="url(#filter0_d_6_5)">
<mask id="path-1-outside-1_6_5" maskUnits="userSpaceOnUse" x="6.23676" y="-0.953979" width="348" height="180" fill="black">
<rect fill="white" x="6.23676" y="-0.953979" width="348" height="180"/>
<path d="M19.5436 15.0411H26.5149L81.5699 154.377L136.625 15.0411H143.507L85.0555 163.046H78.0842L19.5436 15.0411ZM86.0386 130.871L82.3742 139.094L33.3967 15.0411H40.2786L86.0386 130.871ZM92.9205 113.264L89.5242 122.112L47.2499 15.0411H54.2211L92.9205 113.264ZM99.713 95.3892L96.3167 104.416L61.103 15.0411H67.9849L99.713 95.3892ZM178.095 15.0411H185.066L126.525 163.046H119.644L178.095 15.0411ZM164.331 15.0411H171.213L112.672 163.046H105.79L164.331 15.0411ZM150.389 15.0411H157.36L98.8192 163.046H91.9373L150.389 15.0411ZM239.674 64.0186C232.762 70.9302 229.307 79.2719 229.307 89.0436C229.307 98.8152 232.762 107.157 239.674 114.069C246.586 120.98 254.927 124.436 264.699 124.436C274.471 124.436 282.812 120.98 289.724 114.069C296.636 107.157 300.092 98.8152 300.092 89.0436C300.092 79.2719 296.636 70.9302 289.724 64.0186C282.812 57.1069 274.471 53.6511 264.699 53.6511C254.927 53.6511 246.586 57.1069 239.674 64.0186ZM226.179 105.31C223.974 100.126 222.872 94.704 222.872 89.0436C222.872 83.3831 223.974 77.9909 226.179 72.8667C228.383 67.6829 231.362 63.2142 235.116 59.4604C238.87 55.7067 243.309 52.7275 248.433 50.5229C253.617 48.3184 259.039 47.2161 264.699 47.2161C270.36 47.2161 275.752 48.3184 280.876 50.5229C286.06 52.7275 290.529 55.7067 294.282 59.4604C298.036 63.2142 301.015 67.6829 303.22 72.8667C305.424 77.9909 306.527 83.3831 306.527 89.0436C306.527 94.704 305.424 100.126 303.22 105.31C301.015 110.434 298.036 114.873 294.282 118.627C290.529 122.38 286.06 125.36 280.876 127.564C275.752 129.769 270.36 130.871 264.699 130.871C259.039 130.871 253.617 129.769 248.433 127.564C243.309 125.36 238.87 122.38 235.116 118.627C231.362 114.873 228.383 110.434 226.179 105.31ZM222.872 64.8229C218.582 72.2113 216.437 80.2848 216.437 89.0436C216.437 97.8023 218.582 105.876 222.872 113.264C227.221 120.652 233.09 126.521 240.479 130.871C247.867 135.161 255.94 137.306 264.699 137.306C273.458 137.306 281.531 135.161 288.92 130.871C296.308 126.521 302.147 120.652 306.437 113.264C310.787 105.876 312.962 97.8023 312.962 89.0436C312.962 80.2848 310.787 72.2113 306.437 64.8229C302.147 57.4346 296.308 51.5954 288.92 47.3054C281.531 42.9559 273.458 40.7811 264.699 40.7811C255.94 40.7811 247.867 42.9559 240.479 47.3054C233.09 51.5954 227.221 57.4346 222.872 64.8229ZM217.33 116.482C212.445 108.08 210.002 98.9344 210.002 89.0436C210.002 79.1527 212.445 70.0067 217.33 61.6054C222.216 53.2042 228.86 46.5607 237.261 41.6748C245.662 36.789 254.808 34.3461 264.699 34.3461C274.59 34.3461 283.736 36.789 292.137 41.6748C300.539 46.5607 307.182 53.2042 312.068 61.6054C316.954 70.0067 319.397 79.1527 319.397 89.0436C319.397 98.9344 316.954 108.08 312.068 116.482C307.182 124.883 300.539 131.526 292.137 136.412C283.736 141.298 274.59 143.741 264.699 143.741C254.808 143.741 245.662 141.298 237.261 136.412C228.86 131.526 222.216 124.883 217.33 116.482ZM208.393 65.2698C205.175 72.8369 203.567 80.7615 203.567 89.0436C203.567 97.3256 205.175 105.25 208.393 112.817C211.61 120.384 215.93 126.909 221.352 132.39C226.834 137.812 233.358 142.132 240.925 145.35C248.492 148.567 256.417 150.176 264.699 150.176C272.981 150.176 280.906 148.567 288.473 145.35C296.04 142.132 302.535 137.812 307.957 132.39C313.438 126.909 317.788 120.384 321.005 112.817C324.223 105.25 325.832 97.3256 325.832 89.0436C325.832 80.7615 324.223 72.8369 321.005 65.2698C317.788 57.7027 313.438 51.2082 307.957 45.7861C302.535 40.3044 296.04 35.9548 288.473 32.7373C280.906 29.5198 272.981 27.9111 264.699 27.9111C256.417 27.9111 248.492 29.5198 240.925 32.7373C233.358 35.9548 226.834 40.3044 221.352 45.7861C215.93 51.2082 211.61 57.7027 208.393 65.2698ZM206.159 122.917C200.141 112.549 197.132 101.258 197.132 89.0436C197.132 76.829 200.141 65.5379 206.159 55.1704C212.236 44.8029 220.459 36.6102 230.826 30.5923C241.194 24.5148 252.485 21.4761 264.699 21.4761C276.914 21.4761 288.205 24.5148 298.572 30.5923C308.94 36.6102 317.132 44.8029 323.15 55.1704C329.228 65.5379 332.267 76.829 332.267 89.0436C332.267 101.258 329.228 112.549 323.15 122.917C317.132 133.284 308.94 141.507 298.572 147.584C288.205 153.602 276.914 156.611 264.699 156.611C252.485 156.611 241.194 153.602 230.826 147.584C220.459 141.507 212.236 133.284 206.159 122.917ZM196.506 60.3542C192.633 69.4704 190.697 79.0336 190.697 89.0436C190.697 99.0535 192.633 108.646 196.506 117.822C200.439 126.939 205.712 134.804 212.325 141.417C218.939 148.031 226.804 153.304 235.92 157.237C245.096 161.11 254.689 163.046 264.699 163.046C274.709 163.046 284.272 161.11 293.389 157.237C302.564 153.304 310.459 148.031 317.073 141.417C323.687 134.804 328.93 126.939 332.803 117.822C336.735 108.646 338.702 99.0535 338.702 89.0436C338.702 79.0336 336.735 69.4704 332.803 60.3542C328.93 51.1784 323.687 43.2836 317.073 36.6698C310.459 30.0561 302.564 24.8127 293.389 20.9398C284.272 17.0073 274.709 15.0411 264.699 15.0411C254.689 15.0411 245.096 17.0073 235.92 20.9398C226.804 24.8127 218.939 30.0561 212.325 36.6698C205.712 43.2836 200.439 51.1784 196.506 60.3542ZM190.607 120.325C186.377 110.374 184.262 99.9473 184.262 89.0436C184.262 78.1398 186.377 67.7425 190.607 57.8517C194.897 47.9013 200.617 39.3511 207.767 32.2011C214.977 24.9915 223.527 19.2715 233.418 15.0411C243.368 10.7511 253.795 8.60609 264.699 8.60609C275.603 8.60609 286 10.7511 295.891 15.0411C305.841 19.2715 314.392 24.9915 321.542 32.2011C328.751 39.3511 334.471 47.9013 338.702 57.8517C342.992 67.7425 345.137 78.1398 345.137 89.0436C345.137 99.9473 342.992 110.374 338.702 120.325C334.471 130.216 328.751 138.766 321.542 145.975C314.392 153.125 305.841 158.816 295.891 163.046C286 167.336 275.603 169.481 264.699 169.481C253.795 169.481 243.368 167.336 233.418 163.046C223.527 158.816 214.977 153.125 207.767 145.975C200.617 138.766 194.897 130.216 190.607 120.325Z"/>
</mask>
<path d="M19.5436 15.0411H26.5149L81.5699 154.377L136.625 15.0411H143.507L85.0555 163.046H78.0842L19.5436 15.0411ZM86.0386 130.871L82.3742 139.094L33.3967 15.0411H40.2786L86.0386 130.871ZM92.9205 113.264L89.5242 122.112L47.2499 15.0411H54.2211L92.9205 113.264ZM99.713 95.3892L96.3167 104.416L61.103 15.0411H67.9849L99.713 95.3892ZM178.095 15.0411H185.066L126.525 163.046H119.644L178.095 15.0411ZM164.331 15.0411H171.213L112.672 163.046H105.79L164.331 15.0411ZM150.389 15.0411H157.36L98.8192 163.046H91.9373L150.389 15.0411ZM239.674 64.0186C232.762 70.9302 229.307 79.2719 229.307 89.0436C229.307 98.8152 232.762 107.157 239.674 114.069C246.586 120.98 254.927 124.436 264.699 124.436C274.471 124.436 282.812 120.98 289.724 114.069C296.636 107.157 300.092 98.8152 300.092 89.0436C300.092 79.2719 296.636 70.9302 289.724 64.0186C282.812 57.1069 274.471 53.6511 264.699 53.6511C254.927 53.6511 246.586 57.1069 239.674 64.0186ZM226.179 105.31C223.974 100.126 222.872 94.704 222.872 89.0436C222.872 83.3831 223.974 77.9909 226.179 72.8667C228.383 67.6829 231.362 63.2142 235.116 59.4604C238.87 55.7067 243.309 52.7275 248.433 50.5229C253.617 48.3184 259.039 47.2161 264.699 47.2161C270.36 47.2161 275.752 48.3184 280.876 50.5229C286.06 52.7275 290.529 55.7067 294.282 59.4604C298.036 63.2142 301.015 67.6829 303.22 72.8667C305.424 77.9909 306.527 83.3831 306.527 89.0436C306.527 94.704 305.424 100.126 303.22 105.31C301.015 110.434 298.036 114.873 294.282 118.627C290.529 122.38 286.06 125.36 280.876 127.564C275.752 129.769 270.36 130.871 264.699 130.871C259.039 130.871 253.617 129.769 248.433 127.564C243.309 125.36 238.87 122.38 235.116 118.627C231.362 114.873 228.383 110.434 226.179 105.31ZM222.872 64.8229C218.582 72.2113 216.437 80.2848 216.437 89.0436C216.437 97.8023 218.582 105.876 222.872 113.264C227.221 120.652 233.09 126.521 240.479 130.871C247.867 135.161 255.94 137.306 264.699 137.306C273.458 137.306 281.531 135.161 288.92 130.871C296.308 126.521 302.147 120.652 306.437 113.264C310.787 105.876 312.962 97.8023 312.962 89.0436C312.962 80.2848 310.787 72.2113 306.437 64.8229C302.147 57.4346 296.308 51.5954 288.92 47.3054C281.531 42.9559 273.458 40.7811 264.699 40.7811C255.94 40.7811 247.867 42.9559 240.479 47.3054C233.09 51.5954 227.221 57.4346 222.872 64.8229ZM217.33 116.482C212.445 108.08 210.002 98.9344 210.002 89.0436C210.002 79.1527 212.445 70.0067 217.33 61.6054C222.216 53.2042 228.86 46.5607 237.261 41.6748C245.662 36.789 254.808 34.3461 264.699 34.3461C274.59 34.3461 283.736 36.789 292.137 41.6748C300.539 46.5607 307.182 53.2042 312.068 61.6054C316.954 70.0067 319.397 79.1527 319.397 89.0436C319.397 98.9344 316.954 108.08 312.068 116.482C307.182 124.883 300.539 131.526 292.137 136.412C283.736 141.298 274.59 143.741 264.699 143.741C254.808 143.741 245.662 141.298 237.261 136.412C228.86 131.526 222.216 124.883 217.33 116.482ZM208.393 65.2698C205.175 72.8369 203.567 80.7615 203.567 89.0436C203.567 97.3256 205.175 105.25 208.393 112.817C211.61 120.384 215.93 126.909 221.352 132.39C226.834 137.812 233.358 142.132 240.925 145.35C248.492 148.567 256.417 150.176 264.699 150.176C272.981 150.176 280.906 148.567 288.473 145.35C296.04 142.132 302.535 137.812 307.957 132.39C313.438 126.909 317.788 120.384 321.005 112.817C324.223 105.25 325.832 97.3256 325.832 89.0436C325.832 80.7615 324.223 72.8369 321.005 65.2698C317.788 57.7027 313.438 51.2082 307.957 45.7861C302.535 40.3044 296.04 35.9548 288.473 32.7373C280.906 29.5198 272.981 27.9111 264.699 27.9111C256.417 27.9111 248.492 29.5198 240.925 32.7373C233.358 35.9548 226.834 40.3044 221.352 45.7861C215.93 51.2082 211.61 57.7027 208.393 65.2698ZM206.159 122.917C200.141 112.549 197.132 101.258 197.132 89.0436C197.132 76.829 200.141 65.5379 206.159 55.1704C212.236 44.8029 220.459 36.6102 230.826 30.5923C241.194 24.5148 252.485 21.4761 264.699 21.4761C276.914 21.4761 288.205 24.5148 298.572 30.5923C308.94 36.6102 317.132 44.8029 323.15 55.1704C329.228 65.5379 332.267 76.829 332.267 89.0436C332.267 101.258 329.228 112.549 323.15 122.917C317.132 133.284 308.94 141.507 298.572 147.584C288.205 153.602 276.914 156.611 264.699 156.611C252.485 156.611 241.194 153.602 230.826 147.584C220.459 141.507 212.236 133.284 206.159 122.917ZM196.506 60.3542C192.633 69.4704 190.697 79.0336 190.697 89.0436C190.697 99.0535 192.633 108.646 196.506 117.822C200.439 126.939 205.712 134.804 212.325 141.417C218.939 148.031 226.804 153.304 235.92 157.237C245.096 161.11 254.689 163.046 264.699 163.046C274.709 163.046 284.272 161.11 293.389 157.237C302.564 153.304 310.459 148.031 317.073 141.417C323.687 134.804 328.93 126.939 332.803 117.822C336.735 108.646 338.702 99.0535 338.702 89.0436C338.702 79.0336 336.735 69.4704 332.803 60.3542C328.93 51.1784 323.687 43.2836 317.073 36.6698C310.459 30.0561 302.564 24.8127 293.389 20.9398C284.272 17.0073 274.709 15.0411 264.699 15.0411C254.689 15.0411 245.096 17.0073 235.92 20.9398C226.804 24.8127 218.939 30.0561 212.325 36.6698C205.712 43.2836 200.439 51.1784 196.506 60.3542ZM190.607 120.325C186.377 110.374 184.262 99.9473 184.262 89.0436C184.262 78.1398 186.377 67.7425 190.607 57.8517C194.897 47.9013 200.617 39.3511 207.767 32.2011C214.977 24.9915 223.527 19.2715 233.418 15.0411C243.368 10.7511 253.795 8.60609 264.699 8.60609C275.603 8.60609 286 10.7511 295.891 15.0411C305.841 19.2715 314.392 24.9915 321.542 32.2011C328.751 39.3511 334.471 47.9013 338.702 57.8517C342.992 67.7425 345.137 78.1398 345.137 89.0436C345.137 99.9473 342.992 110.374 338.702 120.325C334.471 130.216 328.751 138.766 321.542 145.975C314.392 153.125 305.841 158.816 295.891 163.046C286 167.336 275.603 169.481 264.699 169.481C253.795 169.481 243.368 167.336 233.418 163.046C223.527 158.816 214.977 153.125 207.767 145.975C200.617 138.766 194.897 130.216 190.607 120.325Z" fill="white"/>
<path d="M19.5436 15.0411V6.43503H6.88486L11.5408 18.2065L19.5436 15.0411ZM26.5149 15.0411L34.5188 11.8785L32.3679 6.43503H26.5149V15.0411ZM81.5698 154.377L73.5659 157.539L81.5698 177.796L89.5738 157.539L81.5698 154.377ZM136.625 15.0411V6.43503H130.772L128.621 11.8785L136.625 15.0411ZM143.507 15.0411L151.511 18.2023L156.158 6.43503H143.507V15.0411ZM85.0555 163.046V171.652H90.9096L93.0599 166.207L85.0555 163.046ZM78.0842 163.046L70.0814 166.211L72.2334 171.652H78.0842V163.046ZM86.0386 130.871L93.8994 134.374L95.3712 131.072L94.0427 127.709L86.0386 130.871ZM82.3742 139.094L74.3695 142.254L81.8941 161.313L90.235 142.597L82.3742 139.094ZM33.3967 15.0411V6.43503H20.7464L25.392 18.2015L33.3967 15.0411ZM40.2786 15.0411L48.2827 11.879L46.132 6.43503H40.2786V15.0411ZM92.9205 113.264L100.955 116.348L102.154 113.223L100.927 110.109L92.9205 113.264ZM89.5242 122.112L81.5195 125.273L89.6374 145.833L97.5587 125.196L89.5242 122.112ZM47.2499 15.0411V6.43503H34.5994L39.2451 18.2016L47.2499 15.0411ZM54.2211 15.0411L62.2281 11.8864L60.0803 6.43503H54.2211V15.0411ZM99.713 95.3892L107.768 98.4197L108.936 95.3143L107.718 92.2283L99.713 95.3892ZM96.3167 104.416L88.3097 107.571L96.5019 128.363L104.372 107.447L96.3167 104.416ZM61.103 15.0411V6.43503H48.4622L53.096 18.1958L61.103 15.0411ZM67.9849 15.0411L75.9894 11.8802L73.8392 6.43503H67.9849V15.0411ZM178.095 15.0411V6.43503H172.241L170.09 11.8799L178.095 15.0411ZM185.066 15.0411L193.069 18.2065L197.725 6.43503H185.066V15.0411ZM126.525 163.046V171.652H132.376L134.528 166.211L126.525 163.046ZM119.644 163.046L111.639 159.885L106.992 171.652H119.644V163.046ZM164.331 15.0411V6.43503H158.48L156.328 11.8757L164.331 15.0411ZM171.213 15.0411L179.216 18.2065L183.872 6.43503H171.213V15.0411ZM112.672 163.046V171.652H118.523L120.675 166.211L112.672 163.046ZM105.79 163.046L97.7877 159.881L93.1317 171.652H105.79V163.046ZM150.389 15.0411V6.43503H144.534L142.384 11.8799L150.389 15.0411ZM157.36 15.0411L165.363 18.2065L170.019 6.43503H157.36V15.0411ZM98.8192 163.046V171.652H104.67L106.822 166.211L98.8192 163.046ZM91.9373 163.046L83.9329 159.885L79.2857 171.652H91.9373V163.046ZM19.5436 15.0411V23.6472H26.5149V15.0411V6.43503H19.5436V15.0411ZM26.5149 15.0411L18.511 18.2036L73.5659 157.539L81.5698 154.377L89.5738 151.214L34.5188 11.8785L26.5149 15.0411ZM81.5698 154.377L89.5738 157.539L144.629 18.2036L136.625 15.0411L128.621 11.8785L73.5659 151.214L81.5698 154.377ZM136.625 15.0411V23.6472H143.507V15.0411V6.43503H136.625V15.0411ZM143.507 15.0411L135.502 11.8799L77.051 159.885L85.0555 163.046L93.0599 166.207L151.511 18.2023L143.507 15.0411ZM85.0555 163.046V154.44H78.0842V163.046V171.652H85.0555V163.046ZM78.0842 163.046L86.087 159.881L27.5464 11.8757L19.5436 15.0411L11.5408 18.2065L70.0814 166.211L78.0842 163.046ZM86.0386 130.871L78.1778 127.368L74.5134 135.59L82.3742 139.094L90.235 142.597L93.8994 134.374L86.0386 130.871ZM82.3742 139.094L90.379 135.933L41.4015 11.8807L33.3967 15.0411L25.392 18.2015L74.3695 142.254L82.3742 139.094ZM33.3967 15.0411V23.6472H40.2786V15.0411V6.43503H33.3967V15.0411ZM40.2786 15.0411L32.2745 18.2032L78.0345 134.033L86.0386 130.871L94.0427 127.709L48.2827 11.879L40.2786 15.0411ZM92.9205 113.264L84.8859 110.18L81.4897 119.028L89.5242 122.112L97.5587 125.196L100.955 116.348L92.9205 113.264ZM89.5242 122.112L97.529 118.952L55.2546 11.8806L47.2499 15.0411L39.2451 18.2016L81.5195 125.273L89.5242 122.112ZM47.2499 15.0411V23.6472H54.2211V15.0411V6.43503H47.2499V15.0411ZM54.2211 15.0411L46.2141 18.1958L84.9135 116.419L92.9205 113.264L100.927 110.109L62.2281 11.8864L54.2211 15.0411ZM99.713 95.3892L91.6581 92.3586L88.2619 101.386L96.3167 104.416L104.372 107.447L107.768 98.4197L99.713 95.3892ZM96.3167 104.416L104.324 101.261L69.11 11.8863L61.103 15.0411L53.096 18.1958L88.3097 107.571L96.3167 104.416ZM61.103 15.0411V23.6472H67.9849V15.0411V6.43503H61.103V15.0411ZM67.9849 15.0411L59.9803 18.202L91.7084 98.55L99.713 95.3892L107.718 92.2283L75.9894 11.8802L67.9849 15.0411ZM178.095 15.0411V23.6472H185.066V15.0411V6.43503H178.095V15.0411ZM185.066 15.0411L177.063 11.8757L118.523 159.881L126.525 163.046L134.528 166.211L193.069 18.2065L185.066 15.0411ZM126.525 163.046V154.44H119.644V163.046V171.652H126.525V163.046ZM119.644 163.046L127.648 166.207L186.099 18.2023L178.095 15.0411L170.09 11.8799L111.639 159.885L119.644 163.046ZM164.331 15.0411V23.6472H171.213V15.0411V6.43503H164.331V15.0411ZM171.213 15.0411L163.21 11.8757L104.67 159.881L112.672 163.046L120.675 166.211L179.216 18.2065L171.213 15.0411ZM112.672 163.046V154.44H105.79V163.046V171.652H112.672V163.046ZM105.79 163.046L113.793 166.211L172.334 18.2065L164.331 15.0411L156.328 11.8757L97.7877 159.881L105.79 163.046ZM150.389 15.0411V23.6472H157.36V15.0411V6.43503H150.389V15.0411ZM157.36 15.0411L149.357 11.8757L90.8164 159.881L98.8192 163.046L106.822 166.211L165.363 18.2065L157.36 15.0411ZM98.8192 163.046V154.44H91.9373V163.046V171.652H98.8192V163.046ZM91.9373 163.046L99.9418 166.207L158.393 18.2023L150.389 15.0411L142.384 11.8799L83.9329 159.885L91.9373 163.046ZM226.179 105.31L218.259 108.678L218.266 108.694L218.273 108.711L226.179 105.31ZM226.179 72.8667L234.084 76.2679L234.091 76.2514L234.098 76.2348L226.179 72.8667ZM248.433 50.5229L245.065 42.6033L245.048 42.6104L245.032 42.6175L248.433 50.5229ZM280.876 50.5229L277.475 58.4284L277.491 58.4355L277.508 58.4426L280.876 50.5229ZM303.22 72.8667L295.3 76.2348L295.307 76.2514L295.314 76.2679L303.22 72.8667ZM303.22 105.31L311.125 108.711L311.132 108.694L311.139 108.678L303.22 105.31ZM280.876 127.564L277.508 119.645L277.491 119.652L277.475 119.659L280.876 127.564ZM248.433 127.564L245.032 135.47L245.048 135.477L245.065 135.484L248.433 127.564ZM222.872 64.8229L215.455 60.4569L215.442 60.4792L215.429 60.5015L222.872 64.8229ZM222.872 113.264L215.429 117.586L215.442 117.608L215.455 117.63L222.872 113.264ZM240.479 130.871L236.112 138.287L236.135 138.3L236.157 138.313L240.479 130.871ZM288.92 130.871L293.241 138.313L293.264 138.3L293.286 138.287L288.92 130.871ZM306.437 113.264L299.021 108.898L299.008 108.92L298.995 108.943L306.437 113.264ZM306.437 64.8229L298.995 69.1443L299.008 69.1667L299.021 69.189L306.437 64.8229ZM288.92 47.3055L284.554 54.7218L284.576 54.7349L284.598 54.7479L288.92 47.3055ZM240.479 47.3055L244.8 54.7479L244.822 54.7349L244.845 54.7218L240.479 47.3055ZM221.352 132.39L215.234 138.442L215.267 138.476L215.3 138.509L221.352 132.39ZM307.957 45.7861L301.838 51.8381L301.871 51.8716L301.905 51.9046L307.957 45.7861ZM206.159 122.917L198.716 127.237L198.725 127.253L198.734 127.269L206.159 122.917ZM206.159 55.1704L198.734 50.8182L198.725 50.8341L198.716 50.8501L206.159 55.1704ZM230.826 30.5923L235.146 38.0354L235.162 38.0261L235.178 38.0168L230.826 30.5923ZM298.572 30.5923L294.22 38.0168L294.236 38.0261L294.252 38.0354L298.572 30.5923ZM323.15 55.1704L315.707 59.4908L315.717 59.5068L315.726 59.5227L323.15 55.1704ZM323.15 122.917L315.726 118.564L315.717 118.58L315.707 118.596L323.15 122.917ZM298.572 147.584L302.893 155.027L302.909 155.018L302.924 155.009L298.572 147.584ZM230.826 147.584L226.474 155.009L226.49 155.018L226.506 155.027L230.826 147.584ZM196.506 60.3542L188.596 56.9641L188.59 56.9766L188.585 56.9891L196.506 60.3542ZM196.506 117.822L188.577 121.169L188.59 121.2L188.604 121.231L196.506 117.822ZM235.92 157.237L232.512 165.139L232.543 165.152L232.574 165.165L235.92 157.237ZM293.388 157.237L296.754 165.158L296.766 165.152L296.779 165.147L293.388 157.237ZM332.803 117.822L324.893 114.432L324.887 114.445L324.882 114.457L332.803 117.822ZM332.803 60.3542L324.874 63.7007L324.887 63.7319L324.901 63.763L332.803 60.3542ZM293.388 20.9398L289.98 28.842L290.011 28.8554L290.042 28.8686L293.388 20.9398ZM235.92 20.9398L239.285 28.8607L239.298 28.8554L239.311 28.8501L235.92 20.9398ZM190.607 120.325L182.687 123.692L182.7 123.721L182.712 123.749L190.607 120.325ZM190.607 57.8517L182.704 54.4445L182.7 54.4559L182.695 54.4674L190.607 57.8517ZM233.418 15.0411L236.802 22.9538L236.814 22.9489L236.825 22.9439L233.418 15.0411ZM295.891 15.0411L292.466 22.9365L292.495 22.9489L292.524 22.9611L295.891 15.0411ZM321.542 32.2011L315.431 38.2612L315.456 38.2865L315.482 38.3117L321.542 32.2011ZM338.702 57.8517L330.782 61.2189L330.794 61.2476L330.806 61.2762L338.702 57.8517ZM338.702 120.325L330.799 116.918L330.794 116.929L330.789 116.94L338.702 120.325ZM295.891 163.046L292.524 155.126L292.495 155.138L292.466 155.151L295.891 163.046ZM233.418 163.046L236.825 155.143L236.814 155.138L236.802 155.133L233.418 163.046ZM207.767 145.975L201.657 152.036L201.682 152.061L201.707 152.086L207.767 145.975ZM239.674 64.0186L233.589 57.9332C225.064 66.4582 220.701 76.9887 220.701 89.0435H229.307H237.913C237.913 81.5551 240.461 75.4022 245.76 70.104L239.674 64.0186ZM229.307 89.0435H220.701C220.701 101.098 225.064 111.629 233.589 120.154L239.674 114.069L245.76 107.983C240.461 102.685 237.913 96.532 237.913 89.0435H229.307ZM239.674 114.069L233.589 120.154C242.114 128.679 252.644 133.042 264.699 133.042V124.436V115.83C257.211 115.83 251.058 113.281 245.76 107.983L239.674 114.069ZM264.699 124.436V133.042C276.754 133.042 287.284 128.679 295.81 120.154L289.724 114.069L283.639 107.983C278.34 113.281 272.188 115.83 264.699 115.83V124.436ZM289.724 114.069L295.81 120.154C304.335 111.629 308.698 101.098 308.698 89.0435H300.092H291.486C291.486 96.532 288.937 102.685 283.639 107.983L289.724 114.069ZM300.092 89.0435H308.698C308.698 76.9887 304.335 66.4582 295.81 57.9332L289.724 64.0186L283.639 70.104C288.937 75.4022 291.486 81.5551 291.486 89.0435H300.092ZM289.724 64.0186L295.81 57.9332C287.284 49.4081 276.754 45.045 264.699 45.045V53.6511V62.2571C272.188 62.2571 278.34 64.8057 283.639 70.104L289.724 64.0186ZM264.699 53.6511V45.045C252.644 45.045 242.114 49.4081 233.589 57.9332L239.674 64.0186L245.76 70.104C251.058 64.8057 257.211 62.2571 264.699 62.2571V53.6511ZM226.179 105.31L234.098 101.942C232.349 97.8284 231.478 93.5523 231.478 89.0435H222.872H214.266C214.266 95.8556 215.599 102.424 218.259 108.678L226.179 105.31ZM222.872 89.0435H231.478C231.478 84.535 232.349 80.3015 234.084 76.2679L226.179 72.8667L218.273 69.4655C215.599 75.6802 214.266 82.2313 214.266 89.0435H222.872ZM226.179 72.8667L234.098 76.2348C235.898 72.0032 238.274 68.4729 241.201 65.5458L235.116 59.4604L229.031 53.375C224.45 57.9555 220.868 63.3627 218.259 69.4986L226.179 72.8667ZM235.116 59.4604L241.201 65.5458C244.145 62.6022 247.66 60.2241 251.834 58.4284L248.433 50.5229L245.032 42.6175C238.957 45.2309 233.594 48.8112 229.031 53.375L235.116 59.4604ZM248.433 50.5229L251.801 58.4426C255.914 56.6932 260.19 55.8221 264.699 55.8221V47.2161V38.61C257.887 38.61 251.319 39.9435 245.065 42.6033L248.433 50.5229ZM264.699 47.2161V55.8221C269.208 55.8221 273.441 56.693 277.475 58.4284L280.876 50.5229L284.277 42.6175C278.063 39.9437 271.511 38.61 264.699 38.61V47.2161ZM280.876 50.5229L277.508 58.4426C281.74 60.2422 285.27 62.6188 288.197 65.5458L294.282 59.4604L300.368 53.375C295.787 48.7946 290.38 45.2129 284.244 42.6033L280.876 50.5229ZM294.282 59.4604L288.197 65.5458C291.124 68.4729 293.5 72.0032 295.3 76.2348L303.22 72.8667L311.139 69.4986C308.53 63.3627 304.948 57.9555 300.368 53.375L294.282 59.4604ZM303.22 72.8667L295.314 76.2679C297.05 80.3015 297.921 84.535 297.921 89.0435H306.527H315.133C315.133 82.2313 313.799 75.6802 311.125 69.4655L303.22 72.8667ZM306.527 89.0435H297.921C297.921 93.5523 297.049 97.8284 295.3 101.942L303.22 105.31L311.139 108.678C313.799 102.424 315.133 95.8556 315.133 89.0435H306.527ZM303.22 105.31L295.314 101.909C293.519 106.082 291.141 109.598 288.197 112.541L294.282 118.627L300.368 124.712C304.931 120.148 308.512 114.786 311.125 108.711L303.22 105.31ZM294.282 118.627L288.197 112.541C285.27 115.468 281.74 117.845 277.508 119.645L280.876 127.564L284.244 135.484C290.38 132.874 295.787 129.293 300.368 124.712L294.282 118.627ZM280.876 127.564L277.475 119.659C273.441 121.394 269.208 122.265 264.699 122.265V130.871V139.477C271.511 139.477 278.063 138.143 284.277 135.47L280.876 127.564ZM264.699 130.871V122.265C260.19 122.265 255.914 121.394 251.801 119.645L248.433 127.564L245.065 135.484C251.319 138.144 257.887 139.477 264.699 139.477V130.871ZM248.433 127.564L251.834 119.659C247.66 117.863 244.145 115.485 241.201 112.541L235.116 118.627L229.031 124.712C233.594 129.276 238.957 132.856 245.032 135.47L248.433 127.564ZM235.116 118.627L241.201 112.541C238.258 109.598 235.88 106.082 234.084 101.909L226.179 105.31L218.273 108.711C220.887 114.786 224.467 120.148 229.031 124.712L235.116 118.627ZM222.872 64.8229L215.429 60.5015C210.357 69.2367 207.831 78.807 207.831 89.0435H216.437H225.043C225.043 81.7626 226.806 75.1858 230.314 69.1443L222.872 64.8229ZM216.437 89.0435H207.831C207.831 99.2801 210.357 108.85 215.429 117.586L222.872 113.264L230.314 108.943C226.806 102.901 225.043 96.3245 225.043 89.0435H216.437ZM222.872 113.264L215.455 117.63C220.546 126.278 227.465 133.196 236.112 138.287L240.479 130.871L244.845 123.455C238.715 119.846 233.896 115.027 230.288 108.898L222.872 113.264ZM240.479 130.871L236.157 138.313C244.892 143.385 254.463 145.912 264.699 145.912V137.306V128.7C257.418 128.7 250.841 126.937 244.8 123.429L240.479 130.871ZM264.699 137.306V145.912C274.936 145.912 284.506 143.385 293.241 138.313L288.92 130.871L284.598 123.429C278.557 126.937 271.98 128.7 264.699 128.7V137.306ZM288.92 130.871L293.286 138.287C301.944 133.19 308.844 126.257 313.88 117.586L306.437 113.264L298.995 108.943C295.45 115.048 290.672 119.853 284.554 123.455L288.92 130.871ZM306.437 113.264L313.854 117.63C319 108.889 321.568 99.3029 321.568 89.0435H312.962H304.356C304.356 96.3017 302.574 102.863 299.021 108.898L306.437 113.264ZM312.962 89.0435H321.568C321.568 78.7842 319 69.1981 313.854 60.4569L306.437 64.8229L299.021 69.189C302.574 75.2245 304.356 81.7854 304.356 89.0435H312.962ZM306.437 64.8229L313.88 60.5015C308.838 51.8192 301.923 44.9044 293.241 39.863L288.92 47.3055L284.598 54.7479C290.693 58.2865 295.456 63.05 298.995 69.1443L306.437 64.8229ZM288.92 47.3055L293.286 39.8891C284.545 34.7431 274.958 32.175 264.699 32.175V40.7811V49.3871C271.957 49.3871 278.518 51.1686 284.554 54.7218L288.92 47.3055ZM264.699 40.7811V32.175C254.44 32.175 244.854 34.7431 236.112 39.8891L240.479 47.3055L244.845 54.7218C250.88 51.1686 257.441 49.3871 264.699 49.3871V40.7811ZM240.479 47.3055L236.157 39.863C227.485 44.8983 220.552 51.7989 215.455 60.4569L222.872 64.8229L230.288 69.189C233.89 63.0703 238.695 58.2926 244.8 54.7479L240.479 47.3055ZM217.33 116.482L224.77 112.155C220.662 105.092 218.608 97.4428 218.608 89.0435H210.002H201.396C201.396 100.426 204.227 111.069 209.891 120.808L217.33 116.482ZM210.002 89.0435H218.608C218.608 80.6443 220.662 72.9951 224.77 65.9319L217.33 61.6054L209.891 57.2789C204.227 67.0183 201.396 77.6611 201.396 89.0435H210.002ZM217.33 61.6054L224.77 65.9319C228.906 58.8207 234.476 53.2499 241.588 49.1143L237.261 41.6748L232.935 34.2354C223.243 39.8714 215.527 47.5877 209.891 57.2789L217.33 61.6054ZM237.261 41.6748L241.588 49.1143C248.651 45.0066 256.3 42.9521 264.699 42.9521V34.3461V25.74C253.317 25.74 242.674 28.5714 232.935 34.2354L237.261 41.6748ZM264.699 34.3461V42.9521C273.098 42.9521 280.748 45.0066 287.811 49.1143L292.137 41.6748L296.464 34.2354C286.724 28.5714 276.082 25.74 264.699 25.74V34.3461ZM292.137 41.6748L287.811 49.1143C294.922 53.2499 300.493 58.8207 304.628 65.9319L312.068 61.6054L319.507 57.2789C313.871 47.5877 306.155 39.8714 296.464 34.2354L292.137 41.6748ZM312.068 61.6054L304.628 65.9319C308.736 72.9951 310.791 80.6443 310.791 89.0435H319.397H328.003C328.003 77.6611 325.171 67.0183 319.507 57.2789L312.068 61.6054ZM319.397 89.0435H310.791C310.791 97.4428 308.736 105.092 304.628 112.155L312.068 116.482L319.507 120.808C325.171 111.069 328.003 100.426 328.003 89.0435H319.397ZM312.068 116.482L304.628 112.155C300.493 119.266 294.922 124.837 287.811 128.973L292.137 136.412L296.464 143.852C306.155 138.216 313.871 130.499 319.507 120.808L312.068 116.482ZM292.137 136.412L287.811 128.973C280.748 133.08 273.098 135.135 264.699 135.135V143.741V152.347C276.082 152.347 286.724 149.516 296.464 143.852L292.137 136.412ZM264.699 143.741V135.135C256.3 135.135 248.651 133.08 241.588 128.973L237.261 136.412L232.935 143.852C242.674 149.516 253.317 152.347 264.699 152.347V143.741ZM237.261 136.412L241.588 128.973C234.476 124.837 228.906 119.266 224.77 112.155L217.33 116.482L209.891 120.808C215.527 130.499 223.243 138.216 232.935 143.852L237.261 136.412ZM208.393 65.2698L200.473 61.9023C196.799 70.5422 194.961 79.6129 194.961 89.0435H203.567H212.173C212.173 81.9101 213.551 75.1316 216.313 68.6373L208.393 65.2698ZM203.567 89.0435H194.961C194.961 98.4742 196.799 107.545 200.473 116.185L208.393 112.817L216.313 109.45C213.551 102.956 212.173 96.177 212.173 89.0435H203.567ZM208.393 112.817L200.473 116.185C204.087 124.685 208.997 132.138 215.234 138.442L221.352 132.39L227.471 126.338C222.863 121.68 219.133 116.083 216.313 109.45L208.393 112.817ZM221.352 132.39L215.3 138.509C221.605 144.745 229.057 149.655 237.558 153.27L240.925 145.35L244.293 137.43C237.659 134.609 232.063 130.88 227.404 126.272L221.352 132.39ZM240.925 145.35L237.558 153.27C246.198 156.943 255.268 158.782 264.699 158.782V150.176V141.57C257.566 141.57 250.787 140.191 244.293 137.43L240.925 145.35ZM264.699 150.176V158.782C274.13 158.782 283.2 156.943 291.84 153.27L288.473 145.35L285.105 137.43C278.611 140.191 271.833 141.57 264.699 141.57V150.176ZM288.473 145.35L291.84 153.27C300.348 149.652 307.785 144.733 314.042 138.476L307.957 132.39L301.871 126.305C297.284 130.892 291.731 134.613 285.105 137.43L288.473 145.35ZM307.957 132.39L314.042 138.476C320.35 132.168 325.303 124.705 328.925 116.185L321.005 112.817L313.086 109.45C310.273 116.064 306.526 121.65 301.871 126.305L307.957 132.39ZM321.005 112.817L328.925 116.185C332.599 107.545 334.438 98.4742 334.438 89.0435H325.832H317.226C317.226 96.177 315.847 102.956 313.086 109.45L321.005 112.817ZM325.832 89.0435H334.438C334.438 79.6129 332.599 70.5422 328.925 61.9023L321.005 65.2698L313.086 68.6373C315.847 75.1316 317.226 81.9101 317.226 89.0435H325.832ZM321.005 65.2698L328.925 61.9023C325.299 53.3748 320.338 45.9277 314.009 39.6675L307.957 45.7861L301.905 51.9046C306.539 56.4886 310.276 62.0307 313.086 68.6373L321.005 65.2698ZM307.957 45.7861L314.075 39.734C307.815 33.405 300.368 28.4434 291.84 24.8175L288.473 32.7373L285.105 40.6572C291.712 43.4663 297.254 47.2038 301.838 51.8381L307.957 45.7861ZM288.473 32.7373L291.84 24.8175C283.2 21.1438 274.13 19.305 264.699 19.305V27.9111V36.5171C271.833 36.5171 278.611 37.8959 285.105 40.6572L288.473 32.7373ZM264.699 27.9111V19.305C255.268 19.305 246.198 21.1438 237.558 24.8175L240.925 32.7373L244.293 40.6572C250.787 37.8959 257.566 36.5171 264.699 36.5171V27.9111ZM240.925 32.7373L237.558 24.8175C229.038 28.4401 221.575 33.3924 215.267 39.7007L221.352 45.7861L227.438 51.8715C232.093 47.2164 237.679 43.4696 244.293 40.6572L240.925 32.7373ZM221.352 45.7861L215.267 39.7007C209.01 45.9578 204.091 53.3942 200.473 61.9023L208.393 65.2698L216.313 68.6373C219.13 62.0113 222.851 56.4585 227.438 51.8715L221.352 45.7861ZM206.159 122.917L213.602 118.596C208.36 109.567 205.738 99.7708 205.738 89.0435H197.132H188.526C188.526 102.745 191.921 115.531 198.716 127.237L206.159 122.917ZM197.132 89.0435H205.738C205.738 78.3163 208.36 68.5201 213.602 59.4908L206.159 55.1704L198.716 50.8501C191.921 62.5558 188.526 75.3417 188.526 89.0435H197.132ZM206.159 55.1704L213.583 59.5227C218.912 50.4326 226.066 43.306 235.146 38.0354L230.826 30.5923L226.506 23.1493C214.851 29.9145 205.56 39.1733 198.734 50.8182L206.159 55.1704ZM230.826 30.5923L235.178 38.0168C244.203 32.7262 253.988 30.0822 264.699 30.0822V21.4761V12.87C250.981 12.87 238.184 16.3034 226.474 23.1679L230.826 30.5923ZM264.699 21.4761V30.0822C275.41 30.0822 285.195 32.7262 294.22 38.0168L298.572 30.5923L302.924 23.1679C291.215 16.3034 278.417 12.87 264.699 12.87V21.4761ZM298.572 30.5923L294.252 38.0354C303.325 43.3017 310.441 50.4181 315.707 59.4908L323.15 55.1704L330.593 50.8501C323.824 39.1878 314.555 29.9188 302.893 23.1493L298.572 30.5923ZM323.15 55.1704L315.726 59.5227C321.016 68.5477 323.661 78.3326 323.661 89.0435H332.267H340.873C340.873 75.3253 337.439 62.5282 330.575 50.8182L323.15 55.1704ZM332.267 89.0435H323.661C323.661 99.7545 321.016 109.539 315.726 118.564L323.15 122.917L330.575 127.269C337.439 115.559 340.873 102.762 340.873 89.0435H332.267ZM323.15 122.917L315.707 118.596C310.437 127.676 303.31 134.831 294.22 140.16L298.572 147.584L302.924 155.009C314.569 148.182 323.828 138.892 330.593 127.237L323.15 122.917ZM298.572 147.584L294.252 140.141C285.223 145.382 275.426 148.005 264.699 148.005V156.611V165.217C278.401 165.217 291.187 161.822 302.893 155.027L298.572 147.584ZM264.699 156.611V148.005C253.972 148.005 244.176 145.382 235.146 140.141L230.826 147.584L226.506 155.027C238.211 161.822 250.997 165.217 264.699 165.217V156.611ZM230.826 147.584L235.178 140.16C226.081 134.827 218.916 127.662 213.583 118.564L206.159 122.917L198.734 127.269C205.556 138.906 214.836 148.187 226.474 155.009L230.826 147.584ZM196.506 60.3542L188.585 56.9891C184.255 67.1812 182.091 77.8898 182.091 89.0435H190.697H199.303C199.303 80.1773 201.011 71.7597 204.427 63.7193L196.506 60.3542ZM190.697 89.0435H182.091C182.091 100.197 184.255 110.928 188.577 121.169L196.506 117.822L204.435 114.476C201.011 106.364 199.303 97.91 199.303 89.0435H190.697ZM196.506 117.822L188.604 121.231C192.941 131.284 198.81 140.073 206.24 147.503L212.325 141.417L218.411 135.332C212.613 129.534 207.937 122.593 204.408 114.414L196.506 117.822ZM212.325 141.417L206.24 147.503C213.67 154.932 222.458 160.802 232.512 165.139L235.92 157.237L239.329 149.334C231.15 145.806 224.209 141.13 218.411 135.332L212.325 141.417ZM235.92 157.237L232.574 165.165C242.814 169.488 253.546 171.652 264.699 171.652V163.046V154.44C255.833 154.44 247.378 152.731 239.267 149.308L235.92 157.237ZM264.699 163.046V171.652C275.853 171.652 286.562 169.488 296.754 165.158L293.388 157.237L290.023 149.316C281.983 152.732 273.565 154.44 264.699 154.44V163.046ZM293.388 157.237L296.779 165.147C306.892 160.812 315.719 154.942 323.158 147.503L317.073 141.417L310.987 135.332C305.199 141.12 298.236 145.796 289.998 149.326L293.388 157.237ZM317.073 141.417L323.158 147.503C330.598 140.063 336.445 131.259 340.724 121.187L332.803 117.822L324.882 114.457C321.415 122.618 316.775 129.544 310.987 135.332L317.073 141.417ZM332.803 117.822L340.713 121.212C345.106 110.962 347.308 100.216 347.308 89.0435H338.702H330.096C330.096 97.8913 328.365 106.331 324.893 114.432L332.803 117.822ZM338.702 89.0435H347.308C347.308 77.8712 345.106 67.1472 340.705 56.9454L332.803 60.3542L324.901 63.763C328.365 71.7937 330.096 80.196 330.096 89.0435H338.702ZM332.803 60.3542L340.732 57.0076C336.455 46.8756 330.607 38.0335 323.158 30.5844L317.073 36.6698L310.987 42.7552C316.766 48.5336 321.405 55.4811 324.874 63.7007L332.803 60.3542ZM317.073 36.6698L323.158 30.5844C315.709 23.1353 306.867 17.2876 296.735 13.0111L293.388 20.9398L290.042 28.8686C298.262 32.3379 305.209 36.9769 310.987 42.7552L317.073 36.6698ZM293.388 20.9398L296.797 13.0377C286.595 8.63689 275.872 6.43503 264.699 6.43503V15.0411V23.6472C273.547 23.6472 281.949 25.3778 289.98 28.842L293.388 20.9398ZM264.699 15.0411V6.43503C253.527 6.43503 242.78 8.63673 232.53 13.0296L235.92 20.9398L239.311 28.8501C247.412 25.3779 255.851 23.6472 264.699 23.6472V15.0411ZM235.92 20.9398L232.555 13.019C222.484 17.2977 213.68 23.1447 206.24 30.5844L212.325 36.6698L218.411 42.7552C224.199 36.9675 231.125 32.3277 239.285 28.8607L235.92 20.9398ZM212.325 36.6698L206.24 30.5844C198.801 38.0233 192.93 46.8504 188.596 56.9641L196.506 60.3542L204.416 63.7443C207.947 55.5063 212.622 48.5438 218.411 42.7552L212.325 36.6698ZM190.607 120.325L198.527 116.958C194.754 108.081 192.868 98.8003 192.868 89.0435H184.262H175.656C175.656 101.094 178 112.667 182.687 123.692L190.607 120.325ZM184.262 89.0435H192.868C192.868 79.2869 194.753 70.0424 198.52 61.236L190.607 57.8517L182.695 54.4674C178 65.4427 175.656 76.9927 175.656 89.0435H184.262ZM190.607 57.8517L198.51 61.2589C202.4 52.2359 207.526 44.613 213.853 38.2865L207.767 32.2011L201.682 26.1157C193.708 34.0892 187.394 43.5667 182.704 54.4445L190.607 57.8517ZM207.767 32.2011L213.853 38.2865C220.244 31.8947 227.864 26.7769 236.802 22.9538L233.418 15.0411L230.034 7.1284C219.19 11.7661 209.709 18.0883 201.682 26.1157L207.767 32.2011ZM233.418 15.0411L236.825 22.9439C245.693 19.1208 254.96 17.2122 264.699 17.2122V8.60609V3.05176e-05C252.631 3.05176e-05 241.044 2.38133 230.011 7.13823L233.418 15.0411ZM264.699 8.60609V17.2122C274.439 17.2122 283.669 19.1207 292.466 22.9365L295.891 15.0411L299.315 7.14571C288.331 2.38145 276.767 3.05176e-05 264.699 3.05176e-05V8.60609ZM295.891 15.0411L292.524 22.9611C301.515 26.7838 309.116 31.8938 315.431 38.2612L321.542 32.2011L327.652 26.141C319.667 18.0892 310.168 11.7592 299.258 7.12109L295.891 15.0411ZM321.542 32.2011L315.482 38.3117C321.849 44.6264 326.959 52.2274 330.782 61.2189L338.702 57.8517L346.622 54.4845C341.983 43.5751 335.654 34.0757 327.602 26.0905L321.542 32.2011ZM338.702 57.8517L330.806 61.2762C334.622 70.0736 336.531 79.3041 336.531 89.0435H345.137H353.743C353.743 76.9755 351.361 65.4114 346.597 54.4272L338.702 57.8517ZM345.137 89.0435H336.531C336.531 98.7831 334.622 108.05 330.799 116.918L338.702 120.325L346.604 123.732C351.361 112.699 353.743 101.111 353.743 89.0435H345.137ZM338.702 120.325L330.789 116.94C326.966 125.879 321.848 133.498 315.456 139.89L321.542 145.975L327.627 152.061C335.654 144.033 341.977 134.552 346.614 123.709L338.702 120.325ZM321.542 145.975L315.456 139.89C309.139 146.207 301.53 151.297 292.524 155.126L295.891 163.046L299.258 170.966C310.153 166.334 319.644 160.044 327.627 152.061L321.542 145.975ZM295.891 163.046L292.466 155.151C283.669 158.966 274.439 160.875 264.699 160.875V169.481V178.087C276.767 178.087 288.331 175.706 299.315 170.941L295.891 163.046ZM264.699 169.481V160.875C254.96 160.875 245.693 158.966 236.825 155.143L233.418 163.046L230.011 170.949C241.044 175.706 252.631 178.087 264.699 178.087V169.481ZM233.418 163.046L236.802 155.133C227.849 151.304 220.222 146.206 213.827 139.865L207.767 145.975L201.707 152.086C209.732 160.045 219.205 166.327 230.034 170.959L233.418 163.046ZM207.767 145.975L213.878 139.915C207.527 133.512 202.393 125.871 198.503 116.9L190.607 120.325L182.712 123.749C187.401 134.561 193.707 144.02 201.657 152.036L207.767 145.975Z" fill="black" mask="url(#path-1-outside-1_6_5)"/>
</g>
<defs>
<filter id="filter0_d_6_5" x="8.58307e-06" y="0" width="360.628" height="202.184" filterUnits="userSpaceOnUse" color-interpolation-filters="sRGB">
<feFlood flood-opacity="0" result="BackgroundImageFix"/>
<feColorMatrix in="SourceAlpha" type="matrix" values="0 0 0 0 0 0 0 0 0 0 0 0 0 0 0 0 0 0 127 0" result="hardAlpha"/>
<feOffset dy="17.2121"/>
<feGaussianBlur stdDeviation="3.44242"/>
<feComposite in2="hardAlpha" operator="out"/>
<feColorMatrix type="matrix" values="0 0 0 0 0 0 0 0 0 0 0 0 0 0 0 0 0 0 0.5 0"/>
<feBlend mode="normal" in2="BackgroundImageFix" result="effect1_dropShadow_6_5"/>
<feBlend mode="normal" in="SourceGraphic" in2="effect1_dropShadow_6_5" result="shape"/>
</filter>
</defs>
</svg>
